<svg xmlns="http://www.w3.org/2000/svg" viewBox="0 0 338.27 282"><defs><style>.cls-1,.cls-4{fill:#ffbf31;}.cls-1,.cls-2,.cls-3,.cls-4{stroke:#000;stroke-miterlimit:10;}.cls-1{stroke-width:20px;}.cls-2{fill:#ffc83d;}.cls-2,.cls-3{stroke-width:14px;}.cls-3{fill:#ea2626;}.cls-4{stroke-width:8px;}</style></defs><g id="图层_2" data-name="图层 2"><g id="图层_1-2" data-name="图层 1"><path class="cls-1" d="M278.23,184.4,290,167.21h0c29.7-44,15.57-105.63-31.71-137.93s-109.84-23.06-140,20.59h0l-11.55,16.9c-48-22.54-84.93-29.92-94.39-16.08-14.81,21.69,43.39,87.25,130,146.43S311.14,286.69,326,265C335.29,251.35,315.67,220.3,278.23,184.4Z"/><ellipse class="cls-2" cx="169.13" cy="157.85" rx="47.56" ry="189.94" transform="translate(-56.61 208.45) rotate(-55.66)"/><path class="cls-2" d="M290,167.21c29.7-44,15.57-105.63-31.71-137.93s-109.84-23.06-140,20.59h0l-22,32.2s16,31.53,76.28,72.71C234.44,197.09,268,199.41,268,199.41l22-32.2Z"/><path class="cls-3" d="M116.54,52.35,96.23,82.07s16,31.53,76.28,72.71C234.44,197.09,268,199.41,268,199.41l20.31-29.72s-33.53-2.32-95.46-44.64C132.55,83.87,116.54,52.35,116.54,52.35Z"/><line class="cls-4" x1="254.01" y1="113.95" x2="289.95" y2="122.18"/><line class="cls-4" x1="250.66" y1="128.57" x2="286.6" y2="136.8"/><line class="cls-4" x1="281.6" y1="109.83" x2="273.38" y2="145.77"/><line class="cls-4" x1="266.98" y1="106.48" x2="258.75" y2="142.42"/></g></g></svg>