<svg xmlns="http://www.w3.org/2000/svg" viewBox="0 0 701.46 89.07"><defs><style>.cls-1{fill:#ffbf31;}.cls-2{fill:#ffc83d;}.cls-3{fill:#ea2626;}</style></defs><g id="图层_2" data-name="图层 2"><g id="图层_1-2" data-name="图层 1"><path class="cls-1" d="M121.39,50.73l.06-8.28h0c0-21.1-18.31-38.31-41.08-38.47S39,20.75,38.75,41.85h0L38.68,50C17.85,53.2,4,59,4,65.63,3.9,76.07,37.65,84.79,79.36,85.09S155,77.17,155,66.73C155.07,60.15,141.71,54.26,121.39,50.73Z"/><path d="M81.6,89.07H79.33C58.84,88.92,39.55,86.77,25,83,8.36,78.72,0,72.86,0,65.6.08,55,18.2,49.46,34.73,46.6l.07-8.73H35A40.94,40.94,0,0,1,48.45,12a47.63,47.63,0,0,1,63.73.46,40.91,40.91,0,0,1,13,26h.22l-.06,9c16.09,3.11,33.69,8.9,33.61,19.34-.05,7.25-8.55,13-25.26,17C119.69,87.21,101.25,89.07,81.6,89.07ZM42.72,42.38l-.08,11-3.35.52c-10.08,1.55-18.43,3.71-24.15,6.23S8,64.85,8,65.66c0,1.23,3.47,5.63,19,9.65,13.94,3.6,32.54,5.66,52.4,5.8s38.49-1.64,52.48-5c15.63-3.79,19.17-8.15,19.18-9.37,0-2.21-7.38-8.06-30.34-12.06l-3.32-.57.08-11.63C117.5,23.57,100.85,8.1,80.34,8h-.29C59.68,8,43,23.12,42.72,41.9Z"/><ellipse class="cls-2" cx="79.5" cy="66.18" rx="18.91" ry="75.53" transform="translate(12.75 145.2) rotate(-89.58)"/><path d="M81.56,87.88H79.34c-38.91-.28-78.25-8-78.15-22.26s39.56-21.4,78.47-21.13c20.39.15,39.58,2.29,54,6,16,4.14,24.16,9.61,24.11,16.25C157.71,80.72,119.74,87.88,81.56,87.88ZM77.39,50c-19.12,0-37,1.79-50.54,5.08C12.05,58.71,6.78,63,6.76,65.65s5.19,7,19.94,10.82c14,3.62,32.73,5.69,52.68,5.83s38.69-1.65,52.77-5.07c14.8-3.59,20.07-7.91,20.09-10.52s-5.19-7-19.94-10.82c-14-3.62-32.73-5.69-52.68-5.84Z"/><path class="cls-2" d="M121.45,42.45c0-21.1-18.31-38.31-41.08-38.47S39,20.75,38.75,41.85h0l-.11,15.51s12.28,6.84,41.3,7.06c29.83.21,41.41-6.46,41.41-6.46l.11-15.51Z"/><path d="M81.35,67.2H79.91C50.51,67,37.8,60.08,37.28,59.79L35.84,59,36,39.06h.12C37.88,17.89,57,1.19,80.05,1.19h.34c23.21.17,42.24,17.18,43.74,38.48h.12l-.14,19.9-1.38.8C122.23,60.65,110.52,67.2,81.35,67.2ZM41.43,55.59c3.94,1.66,16.14,5.88,38.52,6,23.12.18,34.85-3.83,38.61-5.43l.1-13.76c0-19.52-17.15-35.53-38.31-35.68h-.3c-21,0-38.27,15.7-38.52,35.12v.49Z"/><path class="cls-3" d="M38.73,43l-.1,14.32s12.28,6.84,41.3,7.06c29.83.21,41.41-6.46,41.41-6.46l.1-14.32S109.86,50.32,80,50.1C51,49.89,38.73,43,38.73,43Z"/><path d="M81.35,67.2H79.91C50.51,67,37.8,60.08,37.28,59.79L35.84,59,36,38.32l4.09,2.29c.22.11,12.33,6.51,40,6.71,28.46.2,39.89-6,40-6.1l4.18-2.35,0,4.79-.11,15.91-1.38.8C122.23,60.65,110.52,67.2,81.35,67.2ZM41.43,55.59c3.94,1.66,16.14,5.88,38.52,6,23.12.18,34.85-3.83,38.61-5.43l.07-8.34c-5.82,2.08-18,5.17-38.61,5-20.32-.14-32.67-3.49-38.53-5.64Z"/><line class="cls-1" x1="97.76" y1="32.86" x2="111.44" y2="27.6"/><rect x="97.27" y="28.64" width="14.66" height="3.18" transform="translate(-3.88 39.57) rotate(-21.04)"/><line class="cls-1" x1="99.9" y1="38.43" x2="113.59" y2="33.16"/><rect x="99.41" y="34.2" width="14.66" height="3.18" transform="translate(-5.73 40.71) rotate(-21.04)"/><line class="cls-1" x1="105.95" y1="25.38" x2="111.21" y2="39.06"/><rect x="106.99" y="24.89" width="3.18" height="14.66" transform="translate(-4.33 41.12) rotate(-21.04)"/><line class="cls-1" x1="100.38" y1="27.52" x2="105.65" y2="41.2"/><rect x="101.42" y="27.03" width="3.18" height="14.66" transform="translate(-5.47 39.27) rotate(-21.04)"/><path d="M236,20.08a22.63,22.63,0,0,1,8.12,14.7h-9.06q-1.55-6.24-5.9-9.14t-10.94-2.91q-9.9,0-14.86,6.75-4.71,6.07-4.7,16.84,0,10.93,4.61,17,4.88,6.42,15.13,6.41a17.74,17.74,0,0,0,11.1-3.33q4.62-3.59,6.41-10.77H245q-2,10.68-9.57,16.67a26.13,26.13,0,0,1-16.92,5.64q-15,0-22.56-9.57-6.58-8.13-6.58-22.05,0-13.68,6.84-22.14,7.61-9.64,22.22-9.65Q229.15,14.53,236,20.08Z"/><path d="M254.36,15.72h9.32V41.45h32V15.72H305v61h-9.31V49.39h-32V76.74h-9.32Z"/><path d="M311.36,15.72h10.08l17.35,50.59h.26l17.26-50.59h10.08l-21.87,61H333.24Z"/><path d="M373,15.72h9.23v61H373Z"/><path d="M389.64,15.72h50v8H419.29V76.74h-9.23V23.67H389.64Z"/><path d="M464.49,15.72h10.6l23.5,61h-10L482.87,61H456.63l-5.72,15.72H441Zm-5,37.61h20.6L470,25.72h-.34Z"/><path d="M531.75,15.72h45.37v7.44l-35.8,45.63h37.85v7.95h-50V69.39l35.89-45.72H531.75Z"/><path d="M587.29,15.72h9.32V41.45h32V15.72h9.31v61h-9.31V49.39h-32V76.74h-9.32Z"/><path d="M667.36,15.72H678l23.5,61h-10L685.74,61H659.5l-5.72,15.72h-9.92Zm-5,37.61h20.6L672.83,25.72h-.34Z"/></g></g></svg>