<svg xmlns="http://www.w3.org/2000/svg" viewBox="0 0 399.87 224.01"><defs><style>.cls-1,.cls-4{fill:#ffbf31;}.cls-1,.cls-2,.cls-3,.cls-4{stroke:#000;stroke-miterlimit:10;}.cls-1{stroke-width:20px;}.cls-2{fill:#ffc83d;}.cls-2,.cls-3{stroke-width:14px;}.cls-3{fill:#ea2626;}.cls-4{stroke-width:8px;}</style></defs><g id="图层_2" data-name="图层 2"><g id="图层_1-2" data-name="图层 1"><path class="cls-1" d="M305.28,127.57l.15-20.81h0c.1-53.07-46-96.34-103.29-96.76s-104,42.18-104.69,95.24h0l-.15,20.47C44.88,133.8,10.12,148.29,10,165.05,9.81,191.32,94.69,213.23,199.59,214s190.09-19.91,190.28-46.18C390,151.27,356.38,136.46,305.28,127.57Z"/><ellipse class="cls-2" cx="199.94" cy="166.43" rx="47.56" ry="189.94" transform="translate(32.06 365.15) rotate(-89.58)"/><path class="cls-2" d="M305.42,106.76c.1-53.07-46-96.34-103.29-96.76s-104,42.18-104.69,95.24h0l-.29,39S128,161.47,201,162c75,.54,104.12-16.24,104.12-16.24l.28-39Z"/><path class="cls-3" d="M97.42,108.24l-.27,36S128,161.47,201,162c75,.54,104.12-16.24,104.12-16.24l.26-36S276.29,126.54,201.29,126C128.29,125.47,97.42,108.24,97.42,108.24Z"/><line class="cls-4" x1="245.86" y1="82.64" x2="280.27" y2="69.4"/><line class="cls-4" x1="251.25" y1="96.64" x2="285.66" y2="83.4"/><line class="cls-4" x1="266.46" y1="63.82" x2="279.69" y2="98.23"/><line class="cls-4" x1="252.46" y1="69.2" x2="265.69" y2="103.61"/></g></g></svg>