<svg xmlns="http://www.w3.org/2000/svg" viewBox="0 0 395.88 220"><defs><style>.cls-1{fill:#ffc83d;}.cls-1,.cls-2,.cls-3{stroke:#000;stroke-miterlimit:10;}.cls-1,.cls-2{stroke-width:16px;}.cls-2{fill:#ea2626;}.cls-3{fill:#ffbf31;stroke-width:10px;}</style></defs><g id="图层_2" data-name="图层 2"><g id="图层_1-2" data-name="图层 1"><ellipse class="cls-1" cx="197.94" cy="164.44" rx="189.94" ry="47.56"/><path class="cls-1" d="M303,104C302.7,50.94,256.26,8,199,8S95.3,50.94,95,104h0v39s31,17,104,17c75,0,104-17,104-17V104Z"/><path class="cls-2" d="M95,107v36s31,17,104,17c75,0,104-17,104-17V107s-29,17-104,17C126,124,95,107,95,107Z"/><line class="cls-3" x1="243.26" y1="80.31" x2="277.57" y2="66.83"/><line class="cls-3" x1="248.74" y1="94.28" x2="283.06" y2="80.79"/><line class="cls-3" x1="263.71" y1="61.34" x2="277.2" y2="95.66"/><line class="cls-3" x1="249.75" y1="66.83" x2="263.24" y2="101.15"/></g></g></svg>